HIERARCHY
ROOT Hips
{
	OFFSET 0.00 0.00 0.00
	CHANNELS 6 Xposition Yposition Zposition Xrotation Yrotation Zrotation
	JOINT LeftUpLeg
	{
		OFFSET 3.34807 0.00000 0.00000
		CHANNELS 3 Xrotation Yrotation Zrotation
		JOINT LeftLeg
		{
			OFFSET 0.00000 -16.98552 0.00000
			CHANNELS 3 Xrotation Yrotation Zrotation
			JOINT LeftFoot
			{
				OFFSET 0.00000 -16.83686 0.00000
				CHANNELS 3 Xrotation Yrotation Zrotation
				JOINT LeftToeBase
				{
					OFFSET 0.00000 -1.59599 5.95633
					CHANNELS 3 Xrotation Yrotation Zrotation
					End Site
					{
						OFFSET 0.00000 0.00000 2.95275
					}
				}
			}
		}
	}
	JOINT RightUpLeg
	{
		OFFSET -3.34807 0.00000 0.00000
		CHANNELS 3 Xrotation Yrotation Zrotation
		JOINT RightLeg
		{
			OFFSET 0.00000 -16.98552 0.00000
			CHANNELS 3 Xrotation Yrotation Zrotation
			JOINT RightFoot
			{
				OFFSET 0.00000 -16.83686 0.00000
				CHANNELS 3 Xrotation Yrotation Zrotation
				JOINT RightToeBase
				{
					OFFSET 0.00000 -1.59599 5.95633
					CHANNELS 3 Xrotation Yrotation Zrotation
					End Site
					{
						OFFSET 0.00000 0.00000 2.95275
					}
				}
			}
		}
	}
	JOINT Spine
	{
		OFFSET 0.00000 0.03937 0.00000
		CHANNELS 3 Xrotation Yrotation Zrotation
		JOINT Spine1
		{
			OFFSET 0.00000 7.93124 0.00000
			CHANNELS 3 Xrotation Yrotation Zrotation
			JOINT Neck
			{
				OFFSET 0.00000 8.48368 0.00000
				CHANNELS 3 Xrotation Yrotation Zrotation
				JOINT Head
				{
					OFFSET 0.00000 6.65077 0.00000
					CHANNELS 3 Xrotation Yrotation Zrotation
					End Site
					{
						OFFSET 0.00000 4.52755 0.00000
					}
				}
			}
			JOINT LeftShoulder
			{
				OFFSET 0.00000 8.48368 0.00000
				CHANNELS 3 Xrotation Yrotation Zrotation
				JOINT LeftArm
				{
					OFFSET 7.74502 -0.00003 0.00000
					CHANNELS 3 Xrotation Yrotation Zrotation
					JOINT LeftForeArm
					{
						OFFSET 12.49824 -0.00005 0.00000
						CHANNELS 3 Xrotation Yrotation Zrotation
						JOINT LeftHand
						{
							OFFSET 9.88337 -0.00004 0.00000
							CHANNELS 3 Xrotation Yrotation Zrotation
							JOINT LeftHandThumb
							{
								OFFSET 0.00000 0.00000 0.00000
								CHANNELS 3 Xrotation Yrotation Zrotation
								End Site
								{
									OFFSET 0.00000 0.00000 3.93700
								}
							}
							JOINT L_Wrist_End
							{
								OFFSET 3.93700 -0.00001 0.00000
								CHANNELS 3 Xrotation Yrotation Zrotation
							}
						}
					}
				}
			}
			JOINT RightShoulder
			{
				OFFSET 0.00000 8.48368 0.00000
				CHANNELS 3 Xrotation Yrotation Zrotation
				JOINT RightArm
				{
					OFFSET -7.74502 -0.00003 0.00000
					CHANNELS 3 Xrotation Yrotation Zrotation
					JOINT RightForeArm
					{
						OFFSET -12.49824 -0.00005 0.00000
						CHANNELS 3 Xrotation Yrotation Zrotation
						JOINT RightHand
						{
							OFFSET -9.88337 -0.00004 0.00000
							CHANNELS 3 Xrotation Yrotation Zrotation
							JOINT RightHandThumb
							{
								OFFSET 0.00000 0.00000 0.00000
								CHANNELS 3 Xrotation Yrotation Zrotation
								End Site
								{
									OFFSET 0.00000 0.00000 3.93700
								}
							}
							JOINT R_Wrist_End
							{
								OFFSET -5.39369 -0.00002 0.00000
								CHANNELS 3 Xrotation Yrotation Zrotation
							}
						}
					}
				}
			}
		}
	}
}
MOTION
Frames: 12
Frame Time: 0.033332
 34.9002 37.6912 -5.6927 76.9190 88.0140 -81.8825 5.7655 3.1646 12.7842 30.5172 -0.0000 0.0000 4.1320 -5.7067 -11.9563 -13.8335 0.0000 0.0000 -7.9381 -7.4723 4.7364 25.5361 -0.0000 0.0000 14.0736 -2.5557 19.2899 -22.6376 0.0000 -0.0000 -2.0789 -3.4638 3.0749 11.7461 -7.2794 0.4709 -10.6818 8.4758 1.9732 -7.0406 -6.6693 -3.2121 -11.5861 21.2265 23.5659 -3.6446 -34.8231 -83.5655 -0.0002 -46.3075 -0.0001 -18.9399 -34.8278 25.1861 -0.0000 0.0000 -0.0000 -0.0000 0.0000 -0.0000 18.7103 -17.9025 -11.0406 -28.0219 38.8817 90.9747 -0.0001 17.5299 0.0000 62.4390 -70.2188 -119.1044 -0.0000 0.0000 -0.0000 -0.0000 0.0000 -0.0000
 33.9022 37.5637 -5.7199 94.5160 87.9663 -100.0178 8.0840 3.2933 14.0689 32.3925 -0.0000 0.0000 6.0824 -7.3109 -12.9702 -13.8699 0.0000 0.0000 -10.1952 -8.3658 5.0059 26.9770 -0.0000 0.0000 13.9496 -2.5466 19.2011 -22.0845 -0.0000 -0.0000 -2.1942 -3.7688 3.1200 11.7005 -7.5415 0.6215 -10.7312 8.5018 2.0326 -6.6877 -6.7222 -3.0744 -11.8840 20.9454 23.9105 -5.2938 -33.6480 -83.2602 -0.0002 -48.1134 -0.0001 -18.7353 -34.7349 25.7207 -0.0000 0.0000 -0.0000 -0.0000 0.0000 -0.0000 19.2017 -18.2554 -10.7921 -26.2599 39.5857 90.0187 -0.0001 16.0456 0.0000 63.0101 -70.0076 -118.7236 -0.0000 0.0000 -0.0000 -0.0000 0.0000 -0.0000
 32.8475 37.4169 -5.7959 106.9769 87.8842 -112.7910 9.9366 4.3193 15.0780 32.4362 -0.0000 0.0000 9.1139 -8.6400 -13.7088 -13.7734 -0.0000 -0.0000 -12.7677 -8.8708 4.9276 28.8187 0.0000 0.0000 14.0751 -2.6201 19.4206 -21.7601 -0.0000 -0.0000 -2.1502 -4.0417 3.0085 11.7203 -7.7976 0.7018 -10.8885 8.5713 2.1556 -6.6097 -6.7707 -3.0033 -12.1814 20.8431 24.2194 -6.4273 -31.9152 -83.0123 -0.0003 -49.9635 -0.0001 -19.6582 -35.2569 26.4470 -0.0000 0.0000 -0.0000 -0.0000 0.0000 -0.0000 19.6394 -18.6264 -10.5818 -24.9418 39.4687 89.3608 -0.0001 14.3498 0.0000 65.3089 -69.7197 -117.6436 -0.0000 0.0000 -0.0000 -0.0000 0.0000 -0.0000
 31.7789 37.2463 -5.9171 117.9840 87.9110 -124.0359 11.3710 6.3245 15.9853 30.7126 0.0000 0.0000 13.3150 -11.0834 -15.9454 -12.9489 0.0000 -0.0000 -15.2004 -9.0866 4.7191 30.5795 0.0000 0.0000 14.0291 -2.7228 19.9784 -19.5294 -0.0000 -0.0000 -2.2091 -4.2143 2.8475 11.9131 -7.9646 0.7075 -10.8166 8.6272 2.2555 -6.6070 -6.8935 -2.8426 -11.9662 20.7233 24.3367 -7.2417 -30.4445 -82.5729 -0.0003 -51.9141 -0.0001 -20.9710 -35.8994 27.9159 -0.0000 0.0000 -0.0000 -0.0000 0.0000 -0.0000 20.2774 -18.9983 -10.4814 -23.8861 39.2757 89.0201 -0.0000 12.9588 0.0000 65.3966 -70.2194 -117.6022 -0.0000 0.0000 -0.0000 -0.0000 0.0000 -0.0000
 30.7008 37.0521 -6.0679 130.5913 88.0094 -136.7986 12.8218 7.6878 16.3096 27.2704 0.0000 0.0000 16.5384 -15.2368 -15.0927 -11.2136 0.0000 -0.0000 -17.2769 -8.8809 4.4990 31.7851 0.0000 0.0000 14.0822 -3.1828 20.1641 -18.6382 0.0000 -0.0000 -2.3779 -4.3380 2.6315 12.1747 -8.0938 0.6407 -10.7309 8.5290 2.3073 -5.9017 -7.1044 -2.5134 -12.1572 20.5359 24.6368 -7.7206 -29.1737 -82.4529 -0.0003 -52.9204 -0.0001 -22.7278 -35.8731 27.7218 -0.0000 0.0000 -0.0000 -0.0000 0.0000 -0.0000 20.6463 -19.2360 -10.4182 -22.3322 39.6633 88.5836 -0.0000 12.2146 0.0000 65.0287 -69.9882 -117.1568 -0.0000 0.0000 -0.0000 -0.0000 0.0000 -0.0000
 29.5433 36.8495 -6.2788 149.2374 87.6869 -155.4900 13.8148 7.2624 15.9441 23.4757 -0.0000 0.0000 18.8155 -17.7878 -12.1845 -16.1497 0.0000 0.0000 -18.9481 -8.6277 4.0715 32.0874 -0.0000 0.0000 13.8564 -3.6472 20.5118 -16.7977 -0.0000 -0.0000 -2.4062 -4.5329 2.4355 12.3085 -8.3110 0.5519 -10.5473 8.3461 2.4117 -5.3746 -7.4178 -2.5709 -12.3965 20.3533 24.4473 -7.7350 -28.6930 -81.7953 -0.0003 -53.6881 -0.0001 -24.0455 -35.4151 26.8692 -0.0000 0.0000 -0.0000 -0.0000 0.0000 -0.0000 20.9355 -19.6821 -10.2206 -20.6171 39.8289 88.0392 -0.0000 12.2535 0.0000 65.4428 -69.5114 -116.6934 -0.0000 0.0000 -0.0000 -0.0000 0.0000 -0.0000
 28.2684 36.6233 -6.5430 161.8057 86.7686 -168.0573 13.5979 5.8830 15.4297 21.7868 0.0000 -0.0000 19.3536 -17.4499 -7.6213 -33.5491 -0.0000 0.0000 -20.2174 -8.4133 3.5079 31.1699 0.0000 0.0000 13.4810 -4.3664 21.1440 -14.3740 -0.0000 0.0000 -2.4171 -4.8210 2.2552 12.5522 -8.6325 0.4453 -10.3621 8.1159 2.5438 -5.1170 -7.8294 -2.6439 -12.4699 20.0838 24.3445 -8.1606 -28.6141 -81.4435 -0.0003 -53.6352 -0.0001 -24.5284 -34.8451 25.8401 -0.0000 0.0000 -0.0000 -0.0000 0.0000 -0.0000 21.2960 -20.2446 -9.8471 -19.2289 39.8379 87.6114 -0.0000 12.6366 0.0000 65.4333 -69.4142 -116.4236 -0.0000 0.0000 -0.0000 -0.0000 0.0000 -0.0000
 26.8451 36.4019 -6.8321 165.8361 86.0151 -172.3694 12.4163 4.6771 15.2499 22.2891 0.0000 0.0000 14.5753 -16.2575 -7.7554 -38.3823 0.0000 0.0000 -21.3359 -8.1446 3.2422 29.1605 -0.0000 0.0000 13.9428 -5.3374 21.7756 -11.8723 0.0000 0.0000 -2.2156 -5.0270 2.2406 12.8210 -8.8524 0.4602 -10.1841 8.0198 2.8376 -5.1595 -8.3030 -2.7966 -12.5425 19.6759 24.4150 -8.6754 -28.6388 -81.3268 -0.0003 -52.8492 -0.0001 -24.5490 -34.4794 25.7187 -0.0000 0.0000 -0.0000 -0.0000 0.0000 -0.0000 21.5352 -20.5553 -9.4504 -18.2568 39.7333 87.3640 -0.0000 12.9007 0.0000 64.4088 -69.1529 -116.6282 -0.0000 0.0000 -0.0000 -0.0000 0.0000 -0.0000
 25.2597 36.2280 -7.1552 162.0949 85.8942 -169.0728 10.5472 4.5315 14.8700 22.6778 0.0000 0.0000 9.1139 -14.8465 -9.5705 -38.7020 0.0000 0.0000 -22.4918 -7.9493 3.1484 25.8207 0.0000 0.0000 16.1224 -5.6787 22.0410 -9.7747 0.0000 0.0000 -1.7642 -5.0521 2.2723 12.8306 -8.8687 0.5795 -10.0566 8.2419 3.2422 -5.5817 -8.6774 -2.8330 -12.5102 19.2808 24.6070 -9.0978 -28.5180 -81.2806 -0.0003 -51.4226 -0.0001 -23.9955 -34.1759 25.4353 -0.0000 0.0000 -0.0000 -0.0000 0.0000 -0.0000 21.6251 -20.6717 -8.9661 -17.7755 39.5061 87.0645 -0.0000 13.1872 0.0000 64.2811 -68.8716 -116.9391 -0.0000 0.0000 -0.0000 -0.0000 0.0000 -0.0000
 23.5853 36.1601 -7.5216 145.8248 86.5670 -152.2842 8.2212 4.3275 13.1389 23.2530 0.0000 0.0000 3.5440 -12.5897 -11.7105 -32.4577 0.0000 -0.0000 -23.6193 -7.8273 2.2949 20.7282 -0.0000 0.0000 20.4506 -4.9294 22.3031 -8.4395 -0.0000 0.0000 -1.7385 -4.8825 1.5554 13.1418 -8.7740 0.2834 -10.0816 8.7490 3.4315 -6.4144 -8.6731 -2.0854 -12.4784 19.1053 24.7297 -8.9755 -28.2131 -80.6839 -0.0002 -49.6361 -0.0001 -23.4351 -33.7809 24.7983 -0.0000 0.0000 -0.0000 -0.0000 0.0000 -0.0000 21.5716 -20.8024 -8.2301 -18.2438 39.6197 86.7776 -0.0001 13.6952 0.0000 65.6939 -68.5898 -116.8621 -0.0000 0.0000 -0.0000 -0.0000 0.0000 -0.0000
 22.0398 36.2420 -7.8641 128.2732 87.3815 -134.2496 6.0909 6.2317 11.9363 23.0640 0.0000 0.0000 0.4648 -12.3481 -13.0118 -26.7515 0.0000 -0.0000 -22.6348 -9.6082 1.6703 13.0689 -0.0000 0.0000 26.2449 -3.2395 24.9889 -4.0923 -0.0000 0.0000 -1.7717 -4.9245 1.0140 13.6858 -8.9648 -0.2181 -9.9037 9.5022 3.6309 -6.9319 -8.3848 -1.6898 -12.0066 19.0609 24.4623 -8.0101 -28.0943 -79.3214 -0.0002 -46.8697 -0.0001 -23.5932 -34.0624 24.8063 -0.0000 0.0000 -0.0000 -0.0000 0.0000 -0.0000 21.3954 -20.7925 -7.8860 -18.9179 39.4276 86.9606 -0.0001 14.6404 0.0000 66.1539 -68.8264 -117.9677 -0.0000 0.0000 -0.0000 -0.0000 0.0000 -0.0000
 20.6893 36.3978 -8.1964 100.8887 87.9350 -106.3708 4.6050 7.7825 10.8601 22.1928 0.0000 0.0000 -0.4529 -12.9393 -13.9251 -23.6000 0.0000 0.0000 -21.2066 -12.1436 1.1831 7.9224 0.0000 0.0000 27.7392 -1.4874 27.4217 2.3003 0.0000 0.0000 -1.8525 -4.8346 0.7911 13.6294 -9.0628 -0.8454 -10.1229 9.8342 3.4343 -5.8217 -7.8133 -1.1353 -11.8328 19.2178 24.1685 -6.3015 -29.1652 -77.9032 -0.0002 -42.7595 -0.0001 -23.1813 -34.1354 24.7540 -0.0000 0.0000 -0.0000 -0.0000 0.0000 -0.0000 20.9649 -21.1383 -8.0421 -18.5118 38.9711 87.2367 -0.0001 16.4251 0.0000 67.0163 -68.2618 -117.7560 -0.0000 0.0000 -0.0000 -0.0000 0.0000 -0.0000
